<svg width="40" height="30" viewBox="0 0 40 30" fill="none" xmlns="http://www.w3.org/2000/svg"><path d="M33.8617 2.48684C31.3122 1.33579 28.5783 0.487746 25.7198 0.00203748C25.6678 -0.00733654 25.6158 0.0160897 25.589 0.0629432C25.2374 0.678276 24.8479 1.48103 24.5752 2.11199C21.5007 1.65908 18.442 1.65908 15.4305 2.11199C15.1577 1.467 14.7541 0.678276 14.401 0.0629432C14.3741 0.0176529 14.3221 -0.00577328 14.2701 0.00203748C11.4132 0.486194 8.67927 1.33424 6.12823 2.48684C6.10614 2.4962 6.08721 2.51184 6.07465 2.53213C0.888986 10.1552 -0.531584 17.5909 0.1653 24.9344C0.168453 24.9703 0.18895 25.0047 0.21733 25.0265C3.63868 27.4988 6.95285 28.9997 10.2055 29.9945C10.2575 30.0102 10.3127 29.9914 10.3458 29.9492C11.1152 28.9154 11.8011 27.8253 12.3891 26.6789C12.4238 26.6117 12.3907 26.5321 12.3198 26.5055C11.2319 26.0995 10.196 25.6044 9.19955 25.0422C9.12073 24.9969 9.11442 24.8859 9.18693 24.8328C9.39662 24.6782 9.60637 24.5173 9.80659 24.3549C9.84282 24.3253 9.8933 24.319 9.93589 24.3377C16.4821 27.2786 23.5692 27.2786 30.0383 24.3377C30.0808 24.3175 30.1313 24.3237 30.1691 24.3534C30.3694 24.5158 30.5791 24.6782 30.7904 24.8328C30.8629 24.8859 30.8581 24.9969 30.7793 25.0422C29.7829 25.6153 28.747 26.0995 27.6575 26.504C27.5866 26.5305 27.555 26.6117 27.5897 26.6789C28.1904 27.8236 28.8763 28.9138 29.6315 29.9477C29.663 29.9914 29.7198 30.0102 29.7718 29.9945C33.0402 28.9997 36.3544 27.4988 39.7757 25.0265C39.8057 25.0047 39.8246 24.9719 39.8278 24.9359C40.6618 16.446 38.4308 9.07133 33.9137 2.53368C33.9026 2.51184 33.8838 2.4962 33.8617 2.48684ZM13.3667 20.463C11.3958 20.463 9.77189 18.6826 9.77189 16.496C9.77189 14.3095 11.3643 12.5291 13.3667 12.5291C15.3848 12.5291 16.993 14.3252 16.9615 16.496C16.9615 18.6826 15.369 20.463 13.3667 20.463ZM26.6579 20.463C24.6871 20.463 23.0632 18.6826 23.0632 16.496C23.0632 14.3095 24.6556 12.5291 26.6579 12.5291C28.6761 12.5291 30.2842 14.3252 30.2527 16.496C30.2527 18.6826 28.6761 20.463 26.6579 20.463Z" fill="white"></path></svg>