<svg width="334" height="334" viewBox="0 0 334 334" fill="none" xmlns="http://www.w3.org/2000/svg">
<g clip-path="url(#clip0_202_4)">
<path d="M167 334C259.232 334 334 259.232 334 167C334 74.7685 259.232 4.57764e-05 167 4.57764e-05C74.7685 4.57764e-05 0 74.7685 0 167C0 259.232 74.7685 334 167 334Z" fill="#2DAAE1"/>
<path d="M274.078 100.57C266.201 104.066 257.74 106.429 248.845 107.491C257.923 102.054 264.878 93.4395 268.162 83.1864C259.538 88.3086 250.1 91.9146 240.258 93.8478C232.248 85.3101 220.826 79.9797 208.19 79.9797C183.935 79.9797 164.264 99.6426 164.264 123.912C164.264 127.35 164.651 130.705 165.396 133.926C128.883 132.091 96.5124 114.601 74.8449 88.0252C71.0615 94.5158 68.8959 102.062 68.8959 110.114C68.8959 125.354 76.6527 138.8 88.4391 146.676C81.4618 146.46 74.6376 144.577 68.5369 141.184V141.739C68.5369 163.027 83.6781 180.777 103.777 184.814C100.085 185.825 96.2102 186.354 92.2016 186.354C89.3674 186.354 86.6177 186.086 83.9315 185.58C89.5222 203.028 105.747 215.729 124.966 216.088C109.93 227.874 90.9847 234.9 70.4077 234.9C66.8635 234.9 63.3608 234.688 59.9221 234.274C79.3673 246.743 102.455 254.021 127.266 254.021C208.07 254.021 252.262 187.078 252.262 129.025C252.262 127.119 252.22 125.227 252.129 123.342C260.739 117.115 268.171 109.404 274.078 100.57V100.57Z" fill="white"/>
</g>
<defs>
<clipPath id="clip0_202_4">
<rect width="334" height="334" fill="white"/>
</clipPath>
</defs>
</svg>
