<svg xmlns="http://www.w3.org/2000/svg" xmlns:xlink="http://www.w3.org/1999/xlink" width="391.46" height="24.183" viewBox="0 0 391.46 24.183">
  <defs>
    <linearGradient id="linear-gradient" y1="0.5" x2="1" y2="0.5" gradientUnits="objectBoundingBox">
      <stop offset="0" stop-color="#a0a2a5"/>
      <stop offset="0.261" stop-color="#fff"/>
      <stop offset="0.641" stop-color="#616161"/>
      <stop offset="1" stop-color="#fff"/>
    </linearGradient>
  </defs>
  <path id="Path_18" data-name="Path 18" d="M264.056,130.747H242.7V145.03h21.355v4.1H237.892V125.514h26.164v5.233Zm2.121-5.233,12.516,12.516v11.1h4.738V137.959L295.8,125.585h-6.576l-8.378,8.378-8.31-8.308Zm49.5,9.758h7.637v13.86h-25.88V125.514l27.79.213Zm-10.323,4.243,9.051-9.051H302.1v13.858h17.253v-4.808Zm48.365-14h-26.3v4.95h26.3Zm0,18.809h-26.3v4.809h26.3Zm126.716-18.809h-26.3v4.95h26.3Zm0,9.476h-26.3v4.384h26.3Zm0,9.333h-26.3v4.809h26.3Zm89.1-18.809H543.225v4.95H569.53Zm0,9.476H543.225v4.384H569.53Zm0,9.333H543.225v4.809H569.53ZM361.5,149.132V129.616h17.819v5.621H363.653l13.823,13.823h7.284l-9.687-9.687h8.2v-13.86H356.97v23.618Zm217.013,0V129.616H596.33v5.621H580.666l13.825,13.823h7.282l-9.687-9.687h8.2v-13.86H573.984v23.618Zm-183.778,0h26.305V134.99H399.68v-4.525h21.356v-4.95H394.731v13.86h22.486v4.949H394.731Zm208.316,0h26.305V134.99H608v-4.525h21.356v-4.95H603.047v13.86h22.486v4.949H603.047Zm-174.3,0v-16.76L446.067,149.7h4.667V125.514h-3.959s-.707,17.254,0,17.254-17.254-17.254-17.254-17.254h-5.092v23.618Zm81.494-23.618v23.618H506v-9.864H488.071v9.864h-4.243V125.514Zm-4.56,4.738H488.388v4.985h17.289Zm8.38-4.738v23.618h4.03v-9.546h7.636l9.989,9.987h6.135L530.17,137.9l11.676-12.384h-6.683l-9.228,9.723h-7.319v-9.723Z" transform="translate(-237.892 -125.514)" fill="url(#linear-gradient)"/>
</svg>
