<?xml version="1.0" standalone="no"?>
<!DOCTYPE svg PUBLIC "-//W3C//DTD SVG 20010904//EN"
 "http://www.w3.org/TR/2001/REC-SVG-20010904/DTD/svg10.dtd">
<svg version="1.0" xmlns="http://www.w3.org/2000/svg"
 width="816.000000pt" height="816.000000pt" viewBox="0 0 816.000000 816.000000"
 preserveAspectRatio="xMidYMid meet">
<metadata>
Created by potrace 1.14, written by Peter Selinger 2001-2017
</metadata>
<g transform="translate(0.000000,816.000000) scale(0.100000,-0.100000)"
fill="#000000" stroke="none">
<path d="M0 4080 l0 -3360 4080 0 4080 0 0 3360 0 3360 -4080 0 -4080 0 0
-3360z m286 3201 c2 4 17 4 33 -1 16 -4 32 -6 35 -3 8 8 102 7 115 -2 6 -3 11
-1 11 5 0 6 5 8 11 5 6 -4 34 -7 62 -6 120 3 147 2 155 -3 4 -2 14 -1 21 4 8
4 26 4 41 0 15 -4 33 -4 40 0 7 4 25 4 40 0 15 -4 33 -4 40 0 7 4 26 4 41 0
16 -5 31 -5 34 0 3 5 19 5 35 0 18 -5 32 -5 36 1 3 5 10 7 15 3 6 -3 33 -6 60
-5 27 1 71 1 98 2 27 1 54 -2 60 -6 6 -3 11 -1 11 5 0 6 5 8 11 5 10 -7 74 -8
134 -2 17 1 42 -1 57 -5 15 -3 30 -3 33 2 3 5 18 5 33 1 15 -4 38 -5 52 -1 14
4 37 3 51 -1 15 -4 32 -3 39 1 7 4 25 4 40 0 15 -4 33 -4 40 0 7 4 25 4 40 0
15 -4 33 -4 40 0 7 4 26 4 41 0 16 -5 42 -5 59 0 16 5 30 5 30 1 0 -5 12 -6
26 -3 l26 5 -33 -55 c-19 -30 -39 -63 -46 -74 -6 -10 -47 -77 -91 -149 -44
-71 -128 -210 -188 -308 -60 -98 -116 -190 -125 -205 -9 -15 -72 -119 -141
-232 -68 -113 -131 -216 -139 -230 -8 -14 -16 -27 -19 -30 -3 -3 -11 -15 -17
-27 -7 -13 -19 -33 -25 -45 -7 -13 -15 -25 -18 -28 -3 -3 -22 -32 -41 -65 -94
-157 -254 -421 -259 -425 -10 -9 -30 -45 -41 -72 -6 -16 -15 -28 -20 -28 -5 0
-9 -7 -9 -15 0 -8 -4 -15 -10 -15 -5 0 -10 -5 -10 -11 0 -6 -36 -69 -80 -140
-44 -71 -80 -133 -80 -137 0 -5 -8 -17 -18 -28 -9 -10 -23 -30 -29 -44 -7 -14
-38 -65 -68 -113 -30 -48 -55 -92 -55 -98 0 -5 -4 -9 -10 -9 -5 0 -12 -11 -16
-25 -3 -14 -9 -25 -13 -25 -3 0 -15 -17 -26 -37 -11 -21 -40 -69 -65 -108 -24
-38 -51 -82 -60 -97 -72 -130 -137 -226 -117 -174 3 8 3 17 0 20 -3 3 -5 63
-4 133 1 71 2 134 2 141 -1 15 -1 38 0 55 0 6 0 21 -1 32 0 11 0 27 0 35 1 8
1 24 0 35 0 11 0 27 0 35 0 8 0 39 -1 68 -1 29 0 55 4 58 3 3 1 18 -3 34 -4
16 -5 31 -2 35 7 6 5 105 -2 112 -2 2 0 18 4 34 5 16 5 31 0 34 -5 3 -6 15 0
29 4 12 4 29 0 36 -5 8 -5 21 0 31 5 9 7 19 4 22 -8 8 -9 106 -1 113 3 3 1 18
-3 34 -4 16 -6 31 -3 34 4 3 5 29 4 58 -2 52 -2 65 0 91 0 6 0 21 -1 32 0 11
0 27 0 35 1 8 1 24 0 35 0 11 0 27 0 35 0 8 0 39 -1 68 -1 29 0 55 4 58 3 3 1
18 -3 34 -4 16 -5 31 -2 35 7 6 5 105 -2 112 -2 2 0 18 4 34 5 16 5 31 0 34
-5 3 -6 15 0 29 4 12 4 29 0 36 -5 8 -5 21 0 31 5 9 7 19 4 22 -8 8 -9 106 -1
113 3 3 1 18 -3 34 -4 16 -6 31 -3 34 4 3 5 29 4 58 -2 52 -2 65 0 91 0 6 0
21 -1 32 0 11 0 27 0 35 1 8 1 24 0 35 0 11 0 27 0 35 0 8 0 39 -1 68 -1 29 0
55 4 58 3 3 1 18 -3 34 -4 16 -5 31 -2 35 7 6 5 105 -2 112 -2 2 0 18 4 34 5
16 5 31 0 34 -5 3 -6 15 0 29 4 12 4 29 0 36 -5 8 -5 21 0 31 5 9 7 19 4 22
-8 7 -11 97 -3 97 3 0 4 12 3 28 l-2 28 60 -6 c33 -3 61 -3 64 1z m3234 0 c0
6 5 7 11 4 10 -7 74 -8 134 -2 17 1 42 -1 57 -5 15 -3 30 -2 34 3 3 5 10 7 15
3 9 -5 34 -6 156 -3 28 1 56 -2 62 -6 6 -3 11 -1 11 6 0 9 3 10 10 3 5 -5 35
-7 68 -4 31 3 74 3 95 -1 20 -3 37 -3 37 0 0 5 16 6 78 2 20 -1 14 -21 -23
-72 -19 -27 -35 -53 -35 -57 0 -5 -9 -17 -20 -27 -11 -10 -20 -22 -20 -27 0
-11 -112 -182 -122 -186 -5 -2 -8 -8 -8 -13 0 -5 -16 -32 -35 -59 -19 -27 -35
-51 -35 -53 0 -3 -60 -96 -160 -247 -5 -8 -64 -98 -129 -200 -66 -102 -125
-192 -130 -200 -55 -82 -81 -123 -81 -131 0 -5 -4 -9 -10 -9 -5 0 -10 -4 -10
-9 0 -8 -80 -135 -100 -158 -5 -7 -10 -17 -10 -23 0 -5 -4 -10 -10 -10 -5 0
-10 -4 -10 -9 0 -5 -25 -46 -55 -91 -30 -45 -55 -83 -55 -85 0 -4 -88 -137
-101 -153 -6 -7 -16 -23 -22 -35 -11 -21 -45 -72 -252 -390 -44 -67 -125 -192
-180 -277 -54 -85 -102 -157 -105 -160 -3 -3 -9 -13 -15 -22 -5 -10 -43 -68
-83 -130 -239 -370 -217 -332 -216 -391 2 -48 10 -66 78 -176 42 -67 76 -127
76 -132 0 -5 5 -9 10 -9 6 0 10 -5 10 -10 0 -6 15 -34 34 -63 18 -28 77 -124
131 -212 54 -88 124 -202 156 -253 33 -51 59 -95 59 -98 0 -3 18 -32 40 -65
22 -33 40 -65 40 -70 0 -5 4 -9 8 -9 4 0 13 -12 19 -27 7 -16 35 -64 63 -108
28 -44 54 -87 59 -95 67 -111 500 -814 516 -840 28 -42 146 -234 187 -305 16
-27 40 -66 53 -85 12 -19 89 -144 171 -277 165 -270 147 -256 209 -163 16 25
32 47 35 50 3 3 23 32 45 65 22 33 44 65 50 70 8 8 81 113 120 173 14 22 23
34 45 61 11 13 20 28 20 32 0 4 6 14 13 21 7 7 39 51 72 98 32 47 71 103 87
125 16 22 53 76 84 120 30 44 82 118 116 165 33 47 74 106 90 132 17 27 35 48
39 48 5 0 9 5 9 10 0 6 18 35 40 65 22 30 40 58 40 64 0 5 4 11 8 13 5 2 51
64 102 138 52 74 98 137 102 138 4 2 8 8 8 12 0 7 39 65 126 185 40 56 210
299 219 313 6 9 15 22 22 29 6 7 21 29 34 50 13 21 26 40 29 43 3 3 22 30 43
60 52 77 154 223 164 235 7 9 127 179 328 468 221 318 260 373 265 377 3 3 16
22 30 42 14 21 27 38 30 38 3 0 14 -17 25 -37 11 -20 25 -41 30 -47 6 -6 57
-81 113 -168 l104 -156 -65 -104 c-35 -56 -112 -182 -171 -278 -59 -96 -111
-182 -116 -190 -5 -8 -34 -55 -65 -104 -30 -48 -55 -91 -55 -95 0 -5 -9 -16
-20 -26 -11 -10 -20 -22 -20 -27 0 -5 -36 -66 -79 -136 -44 -70 -110 -177
-148 -239 -37 -62 -113 -185 -168 -274 -55 -89 -107 -174 -115 -188 -16 -28
-61 -100 -115 -186 -18 -27 -40 -66 -51 -85 -10 -19 -23 -39 -27 -45 -4 -5
-48 -75 -97 -155 -49 -80 -92 -149 -97 -155 -5 -5 -12 -17 -15 -26 -3 -9 -27
-48 -52 -88 -25 -39 -46 -75 -46 -80 0 -5 -3 -11 -8 -13 -4 -1 -27 -37 -52
-78 -25 -41 -48 -76 -52 -78 -5 -2 -8 -7 -8 -12 0 -6 -27 -53 -78 -135 -7 -11
-60 -96 -117 -190 -57 -93 -108 -175 -112 -181 -4 -5 -13 -19 -20 -30 -6 -10
-16 -18 -23 -16 -6 1 -21 2 -33 3 -28 0 -92 0 -114 -1 -25 0 -65 1 -88 4 -11
1 -24 0 -29 -3 -14 -7 -103 -4 -116 4 -5 3 -10 1 -10 -5 0 -6 -5 -8 -11 -5 -6
4 -33 7 -60 6 -27 -1 -71 -1 -98 -2 -27 -1 -53 1 -58 4 -4 2 -17 1 -28 -3 -11
-4 -30 -4 -42 1 -12 5 -25 4 -28 -1 -3 -5 -18 -5 -35 0 -16 5 -32 5 -35 0 -3
-5 -18 -5 -33 -1 -15 5 -36 5 -47 1 -11 -4 -32 -4 -47 1 -16 4 -30 3 -34 -2
-3 -5 -10 -7 -15 -3 -9 5 -34 6 -156 3 -28 -1 -56 2 -62 6 -6 3 -11 1 -11 -5
0 -6 -5 -8 -11 -5 -13 9 -107 10 -115 2 -3 -3 -18 -1 -34 3 -16 4 -31 6 -34 3
-8 -8 -102 -7 -115 1 -6 4 -11 2 -11 -4 0 -6 -5 -8 -11 -4 -6 3 -28 6 -49 6
-43 -1 -45 1 -87 78 -17 30 -88 159 -158 285 -70 127 -141 255 -158 285 -16
30 -49 89 -72 130 -23 41 -55 100 -72 130 -17 30 -39 71 -50 90 -20 36 -74
133 -102 185 -9 17 -18 32 -21 35 -3 3 -15 25 -27 50 -12 25 -37 70 -54 100
-17 30 -44 78 -59 105 -31 56 -131 238 -167 302 -13 24 -34 62 -47 85 -25 47
-110 199 -146 262 -12 22 -33 60 -47 85 -24 44 -37 68 -97 176 -15 28 -33 56
-38 63 -6 6 -7 12 -3 12 5 0 2 8 -6 18 -15 18 -23 33 -70 120 -17 31 -36 63
-41 70 -6 6 -7 12 -2 12 5 0 4 4 -2 8 -6 4 -28 39 -48 77 -21 39 -42 77 -47
85 -18 31 -105 187 -119 215 -8 17 -17 32 -21 35 -3 3 -13 21 -23 40 -35 71
-71 137 -88 161 -16 26 -15 27 105 210 278 424 580 883 598 909 5 8 66 101
135 205 68 105 166 253 217 330 51 77 94 145 96 150 2 6 7 12 10 15 4 3 41 59
84 125 42 66 81 125 85 130 4 6 30 44 57 85 116 178 265 406 275 420 11 15
124 188 268 407 40 62 80 113 90 115 9 3 29 1 45 -3 16 -5 27 -4 27 2z m2470
-4 c28 0 52 2 56 5 3 4 18 2 34 -2 16 -4 31 -6 34 -3 8 8 102 7 115 -2 6 -3
11 -1 11 5 0 6 5 8 11 5 10 -7 74 -8 134 -2 17 1 42 -1 57 -5 15 -3 30 -2 34
3 3 5 10 7 15 3 6 -3 32 -6 57 -5 132 3 151 3 161 -4 6 -3 11 -1 11 5 0 6 5 8
11 5 10 -7 74 -8 134 -2 17 1 42 -1 57 -5 15 -3 30 -3 33 2 3 5 18 5 33 1 15
-5 36 -5 47 -1 11 4 32 4 47 -1 16 -4 30 -3 34 2 3 5 10 7 15 3 6 -3 33 -6 60
-5 27 1 71 1 98 2 27 1 54 -2 60 -6 6 -3 11 -1 11 5 0 6 5 8 11 5 10 -7 74 -8
134 -2 17 1 42 -1 57 -5 15 -3 30 -2 34 3 3 5 10 7 15 3 9 -5 34 -6 156 -3 28
1 56 -2 62 -6 6 -3 11 -2 11 4 0 6 6 8 14 5 24 -9 79 -10 103 -2 14 4 25 2 33
-7 12 -14 18 -110 8 -120 -3 -4 -2 -20 2 -36 5 -16 5 -31 1 -34 -5 -2 -5 -23
-1 -45 4 -22 4 -43 -1 -45 -4 -3 -4 -18 1 -34 4 -16 5 -32 2 -36 -8 -7 -5
-102 3 -115 3 -6 2 -10 -3 -10 -5 0 -6 -14 -3 -32 4 -18 4 -48 0 -65 -4 -18
-3 -33 1 -33 5 0 5 -13 0 -30 -5 -17 -5 -30 0 -30 5 0 5 -13 0 -30 -5 -17 -5
-30 0 -30 5 0 5 -13 0 -30 -5 -17 -5 -32 0 -35 5 -3 6 -15 0 -29 -4 -12 -4
-29 0 -36 5 -8 5 -21 0 -30 -5 -9 -5 -22 0 -30 5 -8 5 -21 0 -31 -5 -9 -7 -19
-4 -22 8 -8 9 -106 1 -113 -3 -3 -1 -19 3 -35 5 -16 5 -31 1 -34 -5 -2 -5 -23
-1 -45 4 -22 4 -43 -1 -45 -4 -3 -4 -18 1 -34 4 -16 5 -32 2 -36 -8 -7 -5
-102 3 -115 3 -6 2 -10 -4 -10 -6 0 -6 -11 -1 -30 5 -17 5 -30 0 -30 -5 0 -5
-13 0 -30 5 -17 5 -30 0 -30 -5 0 -5 -13 0 -30 5 -17 5 -30 0 -30 -5 0 -5 -13
0 -30 5 -17 5 -30 0 -30 -5 0 -5 -13 0 -30 5 -17 5 -30 0 -30 -5 0 -5 -13 0
-30 5 -17 5 -30 0 -30 -5 0 -5 -13 0 -30 5 -17 5 -30 0 -30 -5 0 -5 -13 0 -30
5 -19 5 -30 -1 -30 -6 0 -7 -4 -4 -10 8 -13 11 -108 3 -115 -3 -4 -2 -20 2
-36 5 -16 5 -31 1 -34 -5 -2 -5 -23 -1 -45 4 -22 4 -43 -1 -45 -4 -3 -4 -18 1
-34 4 -16 5 -32 2 -36 -8 -7 -5 -102 3 -115 3 -6 2 -10 -3 -10 -5 0 -6 -14 -3
-32 4 -18 4 -48 0 -65 -4 -18 -3 -33 1 -33 5 0 5 -13 0 -30 -5 -17 -5 -30 0
-30 5 0 5 -13 0 -30 -5 -17 -5 -30 0 -30 5 0 5 -13 0 -30 -5 -17 -5 -32 0 -35
5 -3 6 -15 0 -29 -4 -12 -4 -29 0 -36 5 -8 5 -21 0 -31 -5 -9 -6 -19 -3 -23 7
-7 7 -115 0 -123 -3 -2 -21 27 -40 65 -34 65 -55 106 -152 287 -20 39 -58 108
-82 155 -25 47 -49 89 -54 95 -5 5 -9 17 -9 27 0 10 -4 18 -8 18 -4 0 -13 12
-19 28 -6 15 -34 68 -60 117 -27 50 -78 144 -112 210 -35 66 -76 143 -91 170
-45 81 -73 140 -71 144 2 2 -1 7 -6 10 -5 3 -19 26 -32 51 -25 48 -100 191
-161 305 -21 39 -63 120 -95 180 -32 61 -70 133 -85 160 -15 28 -53 100 -85
160 -32 61 -77 146 -101 190 -23 44 -53 100 -66 125 l-23 45 -61 1 -61 1 -54
-81 c-30 -45 -55 -87 -57 -93 -2 -7 -8 -13 -13 -13 -5 0 -9 -4 -9 -8 0 -6
-148 -237 -200 -312 -6 -8 -51 -76 -99 -150 -49 -74 -94 -140 -100 -147 -6 -7
-11 -15 -11 -18 0 -3 -37 -61 -82 -128 -46 -68 -89 -135 -97 -150 -8 -15 -18
-27 -23 -27 -4 0 -8 -4 -8 -8 0 -9 -219 -346 -239 -369 -6 -7 -11 -14 -11 -16
0 -5 -186 -288 -199 -303 -5 -7 -7 -15 -4 -18 4 -3 1 -6 -6 -6 -6 0 -15 -8
-19 -17 -4 -10 -61 -99 -126 -198 -66 -99 -135 -205 -154 -235 -20 -30 -39
-59 -44 -65 -5 -5 -41 -59 -80 -120 -39 -60 -83 -127 -97 -149 -14 -21 -30
-46 -36 -55 -5 -9 -20 -31 -32 -48 -13 -17 -23 -36 -23 -42 0 -7 -7 -14 -15
-17 -8 -4 -15 -10 -15 -14 0 -5 -41 -71 -91 -147 -51 -76 -117 -176 -148 -223
-30 -47 -59 -86 -63 -88 -5 -2 -8 -8 -8 -14 0 -9 -85 -143 -100 -158 -13 -13
-60 -91 -60 -100 0 -5 -4 -10 -8 -10 -5 0 -15 -11 -22 -25 -21 -39 -12 -51
-121 150 -24 44 -56 103 -71 130 -15 28 -38 73 -52 100 -15 28 -53 100 -86
160 -33 61 -76 142 -96 181 l-37 71 56 82 c32 46 57 86 57 91 0 5 3 10 8 12 4
2 21 23 37 48 17 25 89 131 160 235 230 338 331 486 459 675 114 169 218 321
247 361 6 9 27 41 48 71 20 30 59 88 86 128 28 40 55 80 60 89 6 9 12 18 15
21 5 5 160 234 295 435 33 50 62 92 65 95 3 3 32 46 65 95 33 50 62 92 65 95
5 5 192 281 220 325 8 13 62 93 120 179 90 134 108 156 128 153 12 -3 22 0 22
5 0 5 5 6 10 3 6 -4 33 -7 60 -8z m-5740 -3513 c0 -1 14 -27 31 -56 18 -29 44
-75 59 -103 15 -27 80 -142 145 -255 64 -113 133 -234 153 -270 19 -36 41 -72
48 -80 7 -8 12 -17 11 -20 0 -3 19 -39 43 -80 23 -41 50 -88 59 -105 9 -16 19
-31 24 -33 4 -2 7 -7 7 -12 0 -4 32 -63 70 -130 39 -67 70 -124 70 -126 0 -2
11 -21 23 -42 13 -20 35 -57 49 -82 14 -25 35 -62 47 -82 38 -67 57 -102 91
-163 18 -33 36 -64 40 -70 4 -5 19 -30 32 -55 20 -36 258 -456 338 -595 9 -16
57 -100 105 -185 48 -85 101 -177 117 -205 16 -27 36 -66 46 -85 9 -19 21 -38
26 -42 5 -3 -19 -8 -52 -10 -37 -2 -62 1 -63 7 0 6 -3 4 -6 -3 -2 -6 -9 -9
-15 -6 -12 8 -106 9 -114 1 -3 -3 -18 -1 -34 3 -16 4 -31 6 -34 3 -8 -8 -102
-7 -115 1 -6 4 -11 2 -11 -4 0 -6 -5 -8 -11 -5 -10 7 -74 8 -134 2 -16 -1 -42
1 -57 5 -15 3 -30 3 -33 -2 -3 -5 -18 -5 -33 -1 -15 5 -36 5 -47 1 -11 -4 -32
-4 -47 1 -15 4 -30 4 -33 -1 -3 -5 -18 -5 -33 -1 -15 4 -38 5 -52 1 -14 -4
-37 -3 -51 1 -15 4 -32 3 -39 -1 -7 -4 -24 -5 -39 -1 -24 6 -41 6 -66 1 -23
-4 -105 -1 -115 5 -5 3 -10 1 -10 -5 0 -6 -5 -8 -11 -5 -6 4 -33 7 -60 6 -27
-1 -71 -1 -98 -2 -27 -1 -53 1 -58 4 -4 2 -17 1 -28 -3 -11 -4 -30 -4 -42 1
-12 5 -25 4 -28 -1 -3 -5 -18 -5 -35 0 -18 5 -32 5 -36 -1 -3 -5 -11 -6 -17
-2 -7 4 -23 6 -37 5 -21 -3 -26 2 -28 25 -7 65 -7 95 0 99 3 2 3 17 -2 33 -4
16 -5 32 -2 36 7 6 5 105 -2 112 -2 2 0 18 4 34 5 16 5 31 0 34 -5 3 -6 15 0
29 4 12 4 29 0 36 -5 8 -5 21 0 31 5 9 7 19 4 22 -8 8 -9 106 -1 113 3 3 1 18
-3 34 -4 16 -6 31 -3 34 4 3 5 29 4 58 -2 52 -2 65 0 91 0 6 0 21 -1 32 0 11
0 27 0 35 1 8 1 24 0 35 0 11 0 27 0 35 0 8 0 39 -1 68 -1 29 0 55 4 58 3 3 1
18 -3 34 -4 16 -5 31 -2 35 7 6 5 105 -2 112 -2 2 0 18 4 34 5 16 5 31 0 34
-5 3 -6 15 0 29 4 12 4 29 0 36 -5 8 -5 21 0 31 5 9 7 19 4 22 -8 8 -9 106 -1
113 3 3 1 18 -3 34 -4 16 -6 31 -3 34 4 3 5 29 4 58 -2 52 -2 65 0 91 0 6 0
21 -1 32 0 11 0 27 0 35 1 8 1 24 0 35 0 11 0 27 0 35 0 8 0 39 -1 68 -1 29 0
55 4 58 3 3 1 18 -3 34 -4 16 -5 31 -2 35 7 6 5 105 -2 112 -2 2 0 18 4 34 5
16 5 31 0 34 -5 3 -6 15 0 29 4 12 4 29 0 36 -5 8 -5 21 0 31 5 9 7 19 4 22
-8 8 -9 106 -1 113 3 3 1 18 -3 34 -4 16 -6 31 -3 34 7 7 7 105 0 112 -3 3 -2
16 3 28 4 13 5 29 0 36 -5 7 -5 23 0 35 5 12 4 28 0 35 -5 8 -5 21 0 31 5 9 7
19 3 22 -5 5 -6 45 -4 117 1 19 10 9 46 -49 25 -40 45 -75 45 -77z m7749 80
c-4 -13 -3 -26 4 -33 8 -8 8 -11 0 -11 -8 0 -9 -9 -3 -30 5 -17 5 -32 0 -35
-5 -3 -5 -16 0 -30 6 -15 6 -25 0 -25 -5 0 -5 -12 0 -30 5 -17 5 -30 0 -30 -5
0 -5 -13 0 -30 5 -17 5 -30 0 -30 -5 0 -5 -13 0 -30 5 -17 5 -30 0 -30 -5 0
-5 -13 0 -30 5 -19 5 -30 -1 -30 -6 0 -7 -4 -4 -10 8 -13 11 -108 3 -115 -3
-4 -2 -20 2 -36 5 -16 5 -31 1 -34 -5 -2 -5 -23 -1 -45 4 -22 4 -43 -1 -45 -4
-3 -4 -18 1 -34 4 -16 6 -32 3 -35 -8 -7 -7 -105 1 -113 3 -3 1 -13 -4 -22 -5
-10 -5 -23 0 -31 5 -8 5 -21 0 -30 -5 -9 -5 -22 0 -30 4 -7 4 -24 0 -36 -6
-14 -5 -26 0 -29 5 -3 5 -18 0 -35 -5 -17 -5 -30 0 -30 5 0 5 -13 0 -30 -5
-17 -5 -30 0 -30 5 0 5 -13 0 -30 -5 -16 -6 -30 -2 -30 4 0 7 -29 7 -65 0 -36
-3 -65 -7 -65 -3 0 -3 -12 1 -27 4 -16 4 -44 1 -65 -4 -20 -4 -42 1 -49 4 -7
4 -20 -1 -29 -5 -9 -5 -22 0 -30 5 -8 5 -21 0 -30 -5 -9 -5 -22 0 -30 4 -7 4
-24 0 -36 -6 -14 -5 -26 0 -29 5 -3 5 -18 0 -35 -5 -17 -5 -30 0 -30 5 0 5
-13 0 -30 -5 -17 -5 -30 0 -30 5 0 5 -13 0 -30 -5 -16 -6 -30 -2 -30 4 0 7
-29 7 -65 0 -36 -3 -65 -7 -65 -3 0 -3 -12 1 -27 4 -16 4 -44 1 -65 -4 -20 -4
-42 1 -49 4 -7 4 -20 -1 -29 -5 -9 -5 -22 0 -30 5 -8 5 -21 0 -30 -5 -9 -5
-22 0 -30 4 -7 4 -24 0 -36 -6 -14 -5 -26 0 -29 5 -3 5 -18 0 -35 -5 -17 -5
-30 0 -30 5 0 5 -13 0 -30 -5 -17 -5 -30 0 -30 5 0 5 -13 0 -30 -5 -16 -6 -30
-2 -30 4 0 7 -29 7 -65 0 -36 -3 -65 -7 -65 -3 0 -3 -12 1 -27 4 -16 4 -44 1
-65 -4 -20 -4 -42 1 -49 4 -7 4 -20 -1 -30 -5 -9 -7 -19 -4 -22 9 -8 10 -87 2
-87 -4 0 -5 -7 -1 -16 8 -21 -15 -34 -42 -24 -12 5 -28 5 -35 0 -7 -5 -23 -5
-34 -2 -12 4 -37 6 -56 5 -72 -6 -129 -5 -139 2 -6 3 -11 1 -11 -5 0 -6 -5 -8
-11 -5 -6 4 -33 7 -60 6 -27 -1 -71 -1 -98 -2 -27 -1 -53 1 -58 4 -4 2 -17 1
-28 -3 -11 -4 -30 -4 -42 1 -12 5 -25 4 -28 -1 -3 -5 -18 -5 -35 0 -16 5 -32
5 -35 0 -3 -5 -18 -5 -33 -1 -15 5 -36 5 -47 1 -11 -4 -32 -4 -47 1 -16 4 -30
3 -34 -2 -3 -5 -10 -7 -15 -3 -9 5 -34 6 -156 3 -28 -1 -56 2 -62 6 -6 3 -11
1 -11 -5 0 -6 -5 -8 -11 -5 -13 9 -107 10 -115 2 -3 -3 -18 -1 -34 3 -16 4
-31 6 -34 3 -8 -8 -102 -7 -115 1 -6 4 -11 2 -11 -4 0 -6 -5 -8 -11 -5 -10 7
-74 8 -134 2 -16 -1 -42 1 -57 5 -15 3 -30 3 -33 -2 -3 -5 -18 -5 -33 -1 -15
4 -33 6 -39 4 -19 -7 -16 7 9 47 11 19 29 49 38 65 15 27 70 120 95 163 6 9
34 60 64 112 30 52 59 98 65 102 6 4 8 8 4 8 -4 0 8 25 27 55 19 30 35 56 35
59 0 2 18 33 40 67 22 35 44 73 49 85 5 12 24 45 43 75 18 30 40 66 48 81 14
25 52 92 137 238 18 30 42 72 53 93 12 21 37 62 56 92 18 30 34 57 34 60 0 3
12 24 27 48 15 23 28 44 28 47 1 12 119 205 127 208 4 2 8 12 8 22 0 9 7 23
15 30 8 7 15 17 15 22 0 5 16 34 35 64 19 30 35 57 35 60 0 3 15 28 33 57 18
29 36 59 40 67 4 8 18 33 32 55 14 22 28 47 32 55 4 8 27 49 51 90 49 84 44
76 109 185 79 133 94 159 100 178 3 9 8 17 12 17 3 0 12 15 20 33 8 17 17 34
21 37 3 3 42 68 85 145 44 77 83 142 87 143 5 2 8 9 8 16 0 7 6 18 12 24 17
17 29 -14 17 -44z"/>
</g>
</svg>
